# xmcd
#
# Track frame offsets: 
#        150
#        99462
#        174142
#        205140
#        219845
#        236507
#        256875
#        275920
#        291277
#        306497
#
# Disc length: 4402 seconds
#
# Revision: 0
# Processed by: cddbd v1.5.2PL0 Copyright (c) Steve Scherf et al.
# Submitted via: ExactAudioCopy v0.95a5
#
DISCID=9011300a
DTITLE=Thomas Beecham - Beecham - Wagner, Bizet, Delius, Massenet 
DYEAR=1954
DGENRE=Classical
TTITLE0=Wagner Tannhauser: Overture - Act I: Bacchanale (Venusberg)
TTITLE1=Delius Irmelin, Act II Scenes (arr. T. Beecham)
TTITLE2=Bizet L'Arlesienne Suite No. 1: I. Prelude: Allegro deciso (Te
TTITLE2=mpo di marcia) - Animez - Andantino - Tempo I - Andante molto
TTITLE3=L'Arlesienne Suite No. 1: II. Minuetto: Allegro giocoso
TTITLE4=L'Arlesienne Suite No. 1: III. Adagietto - Adagio
TTITLE5=L'Arlesienne Suite No. 1: IV. Carillon: Allegro moderato - And
TTITLE5=antino - Tempo I
TTITLE6=L'Arlesienne Suite No. 2 (arr. E. Guirand for orchestra) - III
TTITLE6=Menuet: Andantino quasi allegretto
TTITLE7=L'Arlesienne Suite No. 2 (arr. E. Guirand for orchestra) - IV.
TTITLE7=Farandole: Allegro deciso (Tempo di marcia) - Allegro vivo e 
TTITLE7=dec
TTITLE8=Speech by Sir Thomas Beecham
TTITLE9=Massenet La vierge, Act IV: Prelude, "Le dernier sommeil de la
TTITLE9=Vierge" (The Last Sleep of the Virgin)
EXTD=
EXTT0=
EXTT1=
EXTT2=
EXTT3=
EXTT4=
EXTT5=
EXTT6=
EXTT7=
EXTT8=
EXTT9=
PLAYORDER=
